<svg xmlns="http://www.w3.org/2000/svg" viewBox="0 0 1024 1024">
  <defs>
    <radialGradient id="space" cx="32%" cy="18%" r="92%">
      <stop offset="0" stop-color="#3157a8"/>
      <stop offset=".48" stop-color="#172b63"/>
      <stop offset="1" stop-color="#070d24"/>
    </radialGradient>
    <linearGradient id="metal" x1="0" x2="1">
      <stop offset="0" stop-color="#9fb4cf"/>
      <stop offset=".25" stop-color="#ffffff"/>
      <stop offset=".58" stop-color="#d8eaff"/>
      <stop offset="1" stop-color="#7085a5"/>
    </linearGradient>
    <linearGradient id="fuel" x1="0" y1="0" x2="1" y2="1">
      <stop offset="0" stop-color="#d9fff9"/>
      <stop offset=".22" stop-color="#5cf1c1"/>
      <stop offset="1" stop-color="#14a7e4"/>
    </linearGradient>
    <linearGradient id="flame" x1="0" y1="0" x2="0" y2="1">
      <stop offset="0" stop-color="#fffde8"/>
      <stop offset=".28" stop-color="#ffe45a"/>
      <stop offset=".68" stop-color="#ff7a35"/>
      <stop offset="1" stop-color="#ff3f70" stop-opacity="0"/>
    </linearGradient>
    <filter id="glow" x="-70%" y="-70%" width="240%" height="240%">
      <feGaussianBlur stdDeviation="20" result="b"/>
      <feMerge><feMergeNode in="b"/><feMergeNode in="SourceGraphic"/></feMerge>
    </filter>
    <clipPath id="tank"><rect x="422" y="309" width="180" height="288" rx="78"/></clipPath>
  </defs>
  <rect x="24" y="24" width="976" height="976" rx="224" fill="url(#space)"/>
  <g fill="#fff">
    <circle cx="195" cy="252" r="9" opacity=".8"/><circle cx="794" cy="182" r="6"/><circle cx="850" cy="394" r="11" opacity=".7"/><circle cx="196" cy="653" r="6"/><circle cx="750" cy="742" r="8" opacity=".75"/>
  </g>
  <path d="M128 767c153-80 250-68 390-9 133 56 252 63 379-3" fill="none" stroke="#6feaff" stroke-opacity=".18" stroke-width="18" stroke-linecap="round"/>
  <g filter="url(#glow)">
    <path d="M432 726c-25 81 3 147 80 218 77-71 105-137 80-218H432Z" fill="url(#flame)"/>
  </g>
  <path d="M512 108c-120 105-161 247-146 442l17 158c4 53 48 91 102 91h54c54 0 98-38 102-91l17-158c15-195-26-337-146-442Z" fill="url(#metal)" stroke="#ecf8ff" stroke-width="18" stroke-linejoin="round"/>
  <path d="M386 566 229 806l177-45 75-145-95-50Zm252 0 157 240-177-45-75-145 95-50Z" fill="#5e72e6" stroke="#c8d7ff" stroke-width="16" stroke-linejoin="round"/>
  <path d="M382 280h260l12 66H370l12-66Z" fill="#ff5fa4"/>
  <rect x="405" y="290" width="214" height="326" rx="95" fill="#0a183d" stroke="#8ecfff" stroke-width="17"/>
  <g clip-path="url(#tank)">
    <rect x="422" y="309" width="180" height="288" fill="#07122e"/>
    <rect x="422" y="405" width="180" height="192" fill="url(#fuel)"/>
    <ellipse cx="512" cy="405" rx="90" ry="15" fill="#b8fff1" opacity=".8"/>
    <path d="M458 326c-17 87-13 172 1 241" fill="none" stroke="#fff" stroke-opacity=".34" stroke-width="18" stroke-linecap="round"/>
  </g>
  <g stroke="#d5f5ff" stroke-width="10" stroke-linecap="round" opacity=".86">
    <path d="M424 358h38"/><path d="M424 405h23"/><path d="M424 453h38"/><path d="M424 501h23"/><path d="M424 549h38"/>
  </g>
  <circle cx="512" cy="207" r="57" fill="#102b62" stroke="#bde8ff" stroke-width="17"/>
  <circle cx="493" cy="187" r="14" fill="#fff" opacity=".82"/>
  <path d="M454 748h116l29 59H425l29-59Z" fill="#2a3557" stroke="#d5e4ff" stroke-width="15"/>
</svg>
